<svg xmlns="http://www.w3.org/2000/svg" viewBox="0 0 100 100">
  <defs>
    <filter id="ds" x="-20%" y="-20%" width="140%" height="140%">
      <feDropShadow dx="1" dy="1.5" stdDeviation="1.5" flood-opacity="0.25"/>
    </filter>
  </defs>
  	<!-- Hexagon background -->
  	<path d="M50 4 L90 27 L90 73 L50 96 L10 73 L10 27 Z" fill="#A9D150"/>
  
  <g transform="translate(50, 50) skewX(-12) translate(-50, -50)" filter="url(#ds)">
    <!-- Cuff -->
    <rect x="24" y="38" width="10" height="35" rx="2" fill="white" />
    
    <!-- Main Hand -->
    <path d="M41.5,73 
             L73.5,73 Q76.5,73 76.5,70 
             L76.5,43 Q76.5,40 73.5,40 
             L56,40 
             L56,20.5 Q56,17.5 53,17.5 
             L41.5,17.5 Q38.5,17.5 38.5,20.5 
             L38.5,70 Q38.5,73 41.5,73 Z" fill="white" />
  </g>
</svg>